<svg width="451" height="165" viewBox="0 0 451 165" fill="none" xmlns="http://www.w3.org/2000/svg">
  <rect width="451" height="165" rx="32" fill="#F5F5F5"/>
  <path d="M89.2276 121V81.2273H99.2617V121H89.2276ZM74.4716 71.2784V62.5909H114.018V71.2784H74.4716Z" fill="#101214"/>
  <path d="M146.141 121V87.392H155.774V121H146.141ZM150.974 81.8068C149.406 81.8068 148.059 81.285 146.93 80.2415C145.819 79.179 145.264 77.9062 145.264 76.4233C145.264 74.9214 145.819 73.6487 146.93 72.6051C148.059 71.5426 149.406 71.0114 150.974 71.0114C152.543 71.0114 153.881 71.5426 154.992 72.6051C156.122 73.6487 156.686 74.9214 156.686 76.4233C156.686 77.9062 156.122 79.179 154.992 80.2415C153.881 81.285 152.543 81.8068 150.974 81.8068Z" fill="#101214"/>
  <path d="M190.642 121V87.392H200.043V92.5369H200.367C201.025 90.8267 202.137 89.4862 203.703 88.5156C205.289 87.5256 207.116 87.0305 209.184 87.0305C211.289 87.0305 213.088 87.5345 214.58 88.5422C216.09 89.5316 217.099 90.8631 217.604 92.5369H217.965C218.605 90.8804 219.789 89.5538 221.516 88.5575C223.261 87.5399 225.322 87.0305 227.699 87.0305C230.72 87.0305 233.176 88.005 235.065 89.954C236.975 91.8843 237.93 94.6243 237.93 98.1739V121H228.107V100.161C228.107 98.3253 227.611 96.9517 226.62 96.0408C225.629 95.1304 224.384 94.6752 222.885 94.6752C221.189 94.6752 219.869 95.2142 218.926 96.2932C217.983 97.3518 217.512 98.7318 217.512 100.433V121H207.958V99.9432C207.958 98.3449 207.481 97.0751 206.528 96.1335C205.595 95.1809 204.356 94.7045 202.812 94.7045C201.766 94.7045 200.819 94.9705 199.97 95.5028C199.143 96.0156 198.486 96.7366 197.999 97.6655C197.53 98.5758 197.295 99.6368 197.295 100.848V121H190.642Z" fill="#101214"/>
  <path d="M278.769 121V62H301.177C305.48 62 309.041 62.7776 311.861 64.3338C314.699 65.8729 316.817 68.0072 318.213 70.7367C319.627 73.4489 320.334 76.5739 320.334 80.1116C320.334 83.6509 319.627 86.7856 318.213 89.5151C316.798 92.243 314.659 94.3673 311.795 95.8881C308.95 97.3896 305.36 98.1406 301.026 98.1406H286.262V89.2955H299.107C301.446 89.2955 303.34 88.9957 304.789 88.3963C306.255 87.7964 307.327 86.9239 308.004 85.7784C308.701 84.6147 309.049 82.7259 309.049 80.1116C309.049 77.4957 308.701 75.6169 308.004 74.4744C307.327 73.3314 306.255 72.4706 304.789 71.892C303.322 71.3125 301.408 71.0227 299.042 71.0227H289.935V121H278.769Z" fill="#101214"/>
  <text x="347" y="96" fill="#101214" font-family="SF Pro Display, Inter, sans-serif" font-size="34" font-weight="600">Yandex</text>
</svg>
