<svg preserveAspectRatio="none" width="100%" height="100%" overflow="visible" style="display: block;" viewBox="0 0 451 165" fill="none" xmlns="http://www.w3.org/2000/svg">
<path id="Vector" d="M259.033 72.8297C259.033 90.3571 248.573 107.582 236.575 118.462L271.338 113.929C286.105 102.445 303.948 82.1978 303.948 54.3956C303.948 23.2692 276.568 0 234.729 0C215.04 0 199.658 3.32418 188.891 6.34615L178.123 45.9341C189.506 41.4011 205.811 38.3791 217.501 38.3791C243.343 38.3791 259.033 53.1868 259.033 72.8297ZM239.651 54.3956L186.737 60.4396L162.434 161.978H213.81L239.651 54.3956ZM59.3745 132.06C67.9884 121.181 77.5252 103.352 81.2169 91.5659C74.1412 88.2418 69.5266 75.8517 69.5266 63.7637C69.5266 42.0055 85.5239 19.3407 101.829 4.83517H69.8342C37.2244 17.8297 16.6126 43.5165 16.6126 68.5989C16.6126 87.3352 28.6105 107.582 53.2217 117.253L59.9898 107.28L0 115.137L9.2292 165C24.3035 163.187 46.146 148.681 59.3745 132.06ZM112.596 4.83517L75.3718 161.978H126.748L164.587 4.83517H112.596ZM443.617 122.692H279.645L269.8 161.978H434.387L443.617 122.692ZM451 4.83517H401.778L363.938 161.978H409.161L451 4.83517ZM310.101 111.813L345.48 107.28C360.862 90.0549 380.243 47.1429 390.395 4.83517H337.173C337.481 43.2143 324.868 92.7747 310.101 111.813Z" fill="var(--fill-0, black)"/>
</svg>
