<svg preserveAspectRatio="none" width="100%" height="100%" overflow="visible" style="display: block;" viewBox="0 0 450.758 170.325" fill="none" xmlns="http://www.w3.org/2000/svg">
<g id="hrlink_logo">
<path id="Path" fill-rule="evenodd" clip-rule="evenodd" d="M240.08 137.901C234.318 146.206 225.131 150.416 212.777 150.416C189.853 150.416 177.909 133.783 167.366 119.111L167.279 118.99C161.287 110.651 151.494 93.7469 146.166 80.9378C151.558 77.9734 158.19 73.8959 161.968 69.9569C170.936 60.6082 175.44 48.8776 174.65 36.9278C173.946 26.2814 169.102 16.3906 161.697 10.4734C152.654 3.24697 141.794 0.299898 124.221 0.299898H98.1992V0.299898H78.2791V43.3295C57.788 44.1599 38.7445 51.4613 24.3032 64.0974C22.7749 65.4354 21.3158 66.8195 19.9201 68.244V0.29413H0V115.997H19.9201C19.9201 102.063 26.1315 88.9543 37.418 79.0865C48.2489 69.6109 62.6382 64.0743 78.2848 63.2726V115.997H98.205V20.2143H124.227C138.968 20.2143 144.902 22.5385 149.274 26.0334C151.742 28.0058 154.407 32.5504 154.782 38.2427C155.076 42.6951 154.072 49.4254 147.602 56.1674C144.758 59.1317 135.173 64.4203 129.59 67.056L121.926 70.6778L124.273 78.8212C129.123 95.6385 144.389 121.251 151.108 130.605L151.195 130.721C162.521 146.494 179.639 170.325 212.783 170.325C236.792 170.325 249.78 158.865 256.453 149.245C263.472 139.129 264.896 129.129 265.035 128.016C265.052 127.866 265.081 127.606 265.121 127.22H244.913C244.342 129.498 242.986 133.714 240.08 137.901Z" fill="var(--fill-0, black)"/>
<rect id="Rectangle" x="206.785" width="19.949" height="116.47" fill="var(--fill-0, black)"/>
<rect id="Rectangle_2" x="246.072" y="38.2716" width="19.949" height="78.1926" fill="var(--fill-0, black)"/>
<path id="Path_2" fill-rule="evenodd" clip-rule="evenodd" d="M256.043 0.997737C249.284 0.997737 243.575 6.70733 243.575 13.4666C243.575 20.2258 249.284 25.9354 256.043 25.9354C262.803 25.9354 268.512 20.2258 268.512 13.4666C268.518 6.70733 262.803 0.997737 256.043 0.997737Z" fill="var(--fill-0, black)"/>
<path id="Path_3" fill-rule="evenodd" clip-rule="evenodd" d="M331.606 35.9416C321.998 35.9416 314.062 39.2693 309.835 45.0654L305.302 51.2767V38.2716H285.353V116.464H305.302V73.5384C305.302 61.2368 312.026 53.8893 323.284 53.8893C333.602 53.8893 340.269 60.8158 340.269 71.5371V116.458H360.217V67.8749C360.217 51.9861 351.37 35.9416 331.606 35.9416Z" fill="var(--fill-0, black)"/>
<rect id="Rectangle_3" x="378.39" y="4.98868" width="19.949" height="111.475" fill="var(--fill-0, black)"/>
<path id="Path_4" fill-rule="evenodd" clip-rule="evenodd" d="M421.529 77.3909L450.008 38.2716H427.129L400.398 77.2986L428.75 116.47H450.758L421.529 77.3909Z" fill="var(--fill-0, black)"/>
</g>
</svg>
